# xmcd
#
# Track frame offsets:
#	150
#	14015
#	28653
#	38954
#	49208
#	61783
#	73624
#	81244
#	93911
#	104740
#	112964
#	123279
#	134836
#	147348
#	158865
#	171239
#	182437
#	197220
#	208389
#	220084
#	230279
#	242571
#	252551
#	266478
#	279069
#	291237
#	303840
#	316481
#
# Disc length: 4397 seconds
#
# Revision: 1
# Processed by: cddbd v1.5.2PL0 Copyright (c) Steve Scherf et al.
# Submitted via: audiograbber 1.83.01
#
DISCID=a5112b1c
DTITLE=Various Artist - Absolutely Bluegrass
DYEAR=2011
DGENRE=BLuegrass
TTITLE0=The Stanley Brothers - I Long To See The Old Folks
TTITLE1=Blue Sky Boys - In The Hills Of Roane County
TTITLE2=Bill Monroe And His Bluegrass Boys - Alabama Waltz
TTITLE3=Flatt And Scruggs - Foggy Mountain Chimes
TTITLE4=Wade Mainer - Little Birdie
TTITLE5=Bailey Brothers - Beautiful Brown Eyes
TTITLE6=Tommy Magness - When I Safely Reach The Other Shore
TTITLE7=Reno And Smiley - Crazy Finger Blues
TTITLE8=Jim And Jesse - I'll Wash Your Love From My Heart
TTITLE9=Bill Monroe And His Bluegrass Boys - I'm Going Back To Old Kentucky
TTITLE10=The Stanley Brothers - Harbour Of Love
TTITLE11=J. E. Mainer's Mountaineers - Lonely Tombs
TTITLE12=Flatt And Scruggs - I'm Lonesome And Blue
TTITLE13=Jimmie Skinner - Doin' My Time
TTITLE14=Mattie, Martha And Minnie - Can't Live With 'Em 
TTITLE15=Jim Eanes - Wiggle Worm Wiggle
TTITLE16=Bill Monroe And His Bluegrass Boys - Can't You Hear Me Calling?
TTITLE17=Jim Eanes And The Shenandoah Valley Boys - Tomorrow May Be Different
TTITLE18=The Stanley Brothers - Our Last Goodbye
TTITLE19=Jimmy Martin And His Sunny Mountain Boys - My Lonely Heart
TTITLE20=Hodges Brothers - It Won't Be Long
TTITLE21=McCormick Brothers - Banjo Twist
TTITLE22=Flatt And Scruggs - Don't This Road Look Rough An Rocky
TTITLE23=Gid Tanner And His Skillet Lickers - Hawkins Rag
TTITLE24=Reno And Smiley - I'm The Talk Of The Town
TTITLE25=Delmore Brothers - Blues Stay Away From Me
TTITLE26=Bill Monroe And His Bluegrass Boys - Heavy Traffic Ahead
TTITLE27=Allen Brothers - Roll Down The Line
EXTD=
EXTT0=
EXTT1=
EXTT2=
EXTT3=
EXTT4=
EXTT5=
EXTT6=
EXTT7=
EXTT8=
EXTT9=
EXTT10=
EXTT11=
EXTT12=
EXTT13=
EXTT14=
EXTT15=
EXTT16=
EXTT17=
EXTT18=
EXTT19=
EXTT20=
EXTT21=
EXTT22=
EXTT23=
EXTT24=
EXTT25=
EXTT26=
EXTT27=
PLAYORDER=
